<mxfile host="app.diagrams.net" modified="2020-08-10T09:21:29.856Z" agent="5.0 (Windows NT 10.0; Win64; x64) AppleWebKit/537.36 (KHTML, like Gecko) Chrome/84.0.4147.89 Safari/537.36" etag="DxlvtTyogdSxfO0Frv0K" version="13.6.2" type="github">
  <diagram id="OpsIm4dBNlHVExlc1yNm" name="Page-1">
    <mxGraphModel dx="1422" dy="762" grid="1" gridSize="10" guides="1" tooltips="1" connect="1" arrows="1" fold="1" page="1" pageScale="1" pageWidth="827" pageHeight="1169" math="0" shadow="0">
      <root>
        <mxCell id="0" />
        <mxCell id="1" parent="0" />
        <mxCell id="dDVxBRqGpgKaQRZVTBo1-116" value="关于" style="rounded=0;whiteSpace=wrap;html=1;fontStyle=1" vertex="1" parent="1">
          <mxGeometry x="610" y="220" width="30" height="20" as="geometry" />
        </mxCell>
        <mxCell id="dDVxBRqGpgKaQRZVTBo1-117" value="《" style="rounded=0;whiteSpace=wrap;html=1;fontStyle=1" vertex="1" parent="1">
          <mxGeometry x="580" y="220" width="20" height="20" as="geometry" />
        </mxCell>
        <mxCell id="dDVxBRqGpgKaQRZVTBo1-118" value="委员会" style="rounded=0;whiteSpace=wrap;html=1;fontStyle=1" vertex="1" parent="1">
          <mxGeometry x="530" y="220" width="40" height="20" as="geometry" />
        </mxCell>
        <mxCell id="dDVxBRqGpgKaQRZVTBo1-119" value="管理" style="rounded=0;whiteSpace=wrap;html=1;fontStyle=1" vertex="1" parent="1">
          <mxGeometry x="490" y="220" width="30" height="20" as="geometry" />
        </mxCell>
        <mxCell id="dDVxBRqGpgKaQRZVTBo1-120" value="国土资源" style="rounded=0;whiteSpace=wrap;html=1;fontStyle=1" vertex="1" parent="1">
          <mxGeometry x="430" y="220" width="50" height="20" as="geometry" />
        </mxCell>
        <mxCell id="dDVxBRqGpgKaQRZVTBo1-121" value="）" style="rounded=0;whiteSpace=wrap;html=1;fontStyle=1" vertex="1" parent="1">
          <mxGeometry x="330" y="220" width="20" height="20" as="geometry" />
        </mxCell>
        <mxCell id="dDVxBRqGpgKaQRZVTBo1-122" value="县" style="rounded=0;whiteSpace=wrap;html=1;fontStyle=1" vertex="1" parent="1">
          <mxGeometry x="300" y="220" width="20" height="20" as="geometry" />
        </mxCell>
        <mxCell id="dDVxBRqGpgKaQRZVTBo1-123" value="(" style="rounded=0;whiteSpace=wrap;html=1;fontStyle=1" vertex="1" parent="1">
          <mxGeometry x="280" y="220" width="10" height="20" as="geometry" />
        </mxCell>
        <mxCell id="dDVxBRqGpgKaQRZVTBo1-124" value="市" style="rounded=0;whiteSpace=wrap;html=1;fontStyle=1" vertex="1" parent="1">
          <mxGeometry x="250" y="220" width="20" height="20" as="geometry" />
        </mxCell>
        <mxCell id="dDVxBRqGpgKaQRZVTBo1-125" value="xx" style="rounded=0;whiteSpace=wrap;html=1;fontStyle=1" vertex="1" parent="1">
          <mxGeometry x="220" y="220" width="20" height="20" as="geometry" />
        </mxCell>
        <mxCell id="dDVxBRqGpgKaQRZVTBo1-126" value="函" style="rounded=0;whiteSpace=wrap;html=1;fontStyle=1" vertex="1" parent="1">
          <mxGeometry x="190" y="220" width="20" height="20" as="geometry" />
        </mxCell>
        <mxCell id="dDVxBRqGpgKaQRZVTBo1-127" value="国土" style="rounded=0;whiteSpace=wrap;html=1;fontStyle=1" vertex="1" parent="1">
          <mxGeometry x="150" y="220" width="30" height="20" as="geometry" />
        </mxCell>
        <mxCell id="dDVxBRqGpgKaQRZVTBo1-128" value="规划" style="rounded=0;whiteSpace=wrap;html=1;fontStyle=1" vertex="1" parent="1">
          <mxGeometry x="110" y="220" width="30" height="20" as="geometry" />
        </mxCell>
        <mxCell id="dDVxBRqGpgKaQRZVTBo1-129" value="市" style="rounded=0;whiteSpace=wrap;html=1;fontStyle=1" vertex="1" parent="1">
          <mxGeometry x="80" y="220" width="20" height="20" as="geometry" />
        </mxCell>
        <mxCell id="dDVxBRqGpgKaQRZVTBo1-130" value=")" style="rounded=0;whiteSpace=wrap;html=1;fontStyle=1" vertex="1" parent="1">
          <mxGeometry x="60" y="220" width="10" height="20" as="geometry" />
        </mxCell>
        <mxCell id="dDVxBRqGpgKaQRZVTBo1-131" value="1" style="rounded=0;whiteSpace=wrap;html=1;fontStyle=1" vertex="1" parent="1">
          <mxGeometry x="40" y="220" width="10" height="20" as="geometry" />
        </mxCell>
        <mxCell id="dDVxBRqGpgKaQRZVTBo1-132" value="(" style="rounded=0;whiteSpace=wrap;html=1;fontStyle=1" vertex="1" parent="1">
          <mxGeometry x="20" y="220" width="10" height="20" as="geometry" />
        </mxCell>
        <mxCell id="dDVxBRqGpgKaQRZVTBo1-133" value="规划" style="rounded=0;whiteSpace=wrap;html=1;fontStyle=1" vertex="1" parent="1">
          <mxGeometry x="360" y="220" width="30" height="20" as="geometry" />
        </mxCell>
        <mxCell id="dDVxBRqGpgKaQRZVTBo1-134" value="和" style="rounded=0;whiteSpace=wrap;html=1;fontStyle=1" vertex="1" parent="1">
          <mxGeometry x="400" y="220" width="20" height="20" as="geometry" />
        </mxCell>
        <mxCell id="dDVxBRqGpgKaQRZVTBo1-135" value="的" style="rounded=0;whiteSpace=wrap;html=1;fontStyle=1" vertex="1" parent="1">
          <mxGeometry x="870" y="220" width="20" height="20" as="geometry" />
        </mxCell>
        <mxCell id="dDVxBRqGpgKaQRZVTBo1-136" value="意见" style="rounded=0;whiteSpace=wrap;html=1;fontStyle=1" vertex="1" parent="1">
          <mxGeometry x="830" y="220" width="30" height="20" as="geometry" />
        </mxCell>
        <mxCell id="dDVxBRqGpgKaQRZVTBo1-137" value="项目" style="rounded=0;whiteSpace=wrap;html=1;fontStyle=1" vertex="1" parent="1">
          <mxGeometry x="710" y="220" width="30" height="20" as="geometry" />
        </mxCell>
        <mxCell id="dDVxBRqGpgKaQRZVTBo1-138" value="xx" style="rounded=0;whiteSpace=wrap;html=1;fontStyle=1" vertex="1" parent="1">
          <mxGeometry x="650" y="220" width="20" height="20" as="geometry" />
        </mxCell>
        <mxCell id="dDVxBRqGpgKaQRZVTBo1-139" value="xx" style="rounded=0;whiteSpace=wrap;html=1;fontStyle=1" vertex="1" parent="1">
          <mxGeometry x="680" y="220" width="20" height="20" as="geometry" />
        </mxCell>
        <mxCell id="dDVxBRqGpgKaQRZVTBo1-140" value="规划" style="rounded=0;whiteSpace=wrap;html=1;fontStyle=1" vertex="1" parent="1">
          <mxGeometry x="750" y="220" width="30" height="20" as="geometry" />
        </mxCell>
        <mxCell id="dDVxBRqGpgKaQRZVTBo1-141" value="国土" style="rounded=0;whiteSpace=wrap;html=1;fontStyle=1" vertex="1" parent="1">
          <mxGeometry x="790" y="220" width="30" height="20" as="geometry" />
        </mxCell>
        <mxCell id="dDVxBRqGpgKaQRZVTBo1-142" value="&lt;span&gt;&lt;font style=&quot;font-size: 20px&quot;&gt;root&lt;/font&gt;&lt;/span&gt;" style="ellipse;whiteSpace=wrap;html=1;fontStyle=1" vertex="1" parent="1">
          <mxGeometry x="90" y="80" width="70" height="50" as="geometry" />
        </mxCell>
        <mxCell id="dDVxBRqGpgKaQRZVTBo1-143" value="" style="edgeStyle=elbowEdgeStyle;elbow=horizontal;endArrow=classic;html=1;exitX=0.5;exitY=1;exitDx=0;exitDy=0;fontStyle=1" edge="1" parent="1" source="dDVxBRqGpgKaQRZVTBo1-142" target="dDVxBRqGpgKaQRZVTBo1-128">
          <mxGeometry width="50" height="50" relative="1" as="geometry">
            <mxPoint x="130" y="200" as="sourcePoint" />
            <mxPoint x="190" y="180" as="targetPoint" />
          </mxGeometry>
        </mxCell>
        <mxCell id="dDVxBRqGpgKaQRZVTBo1-144" value="" style="edgeStyle=elbowEdgeStyle;elbow=horizontal;endArrow=classic;html=1;exitX=0.25;exitY=0;exitDx=0;exitDy=0;entryX=0.5;entryY=0;entryDx=0;entryDy=0;fontStyle=1" edge="1" parent="1" source="dDVxBRqGpgKaQRZVTBo1-131" target="dDVxBRqGpgKaQRZVTBo1-132">
          <mxGeometry width="50" height="50" relative="1" as="geometry">
            <mxPoint x="135" y="140" as="sourcePoint" />
            <mxPoint x="134.90476190476193" y="230" as="targetPoint" />
            <Array as="points">
              <mxPoint x="45" y="200" />
            </Array>
          </mxGeometry>
        </mxCell>
        <mxCell id="dDVxBRqGpgKaQRZVTBo1-145" value="" style="edgeStyle=elbowEdgeStyle;elbow=horizontal;endArrow=classic;html=1;exitX=0.75;exitY=0;exitDx=0;exitDy=0;entryX=0.5;entryY=0;entryDx=0;entryDy=0;fontStyle=1" edge="1" parent="1" source="dDVxBRqGpgKaQRZVTBo1-131" target="dDVxBRqGpgKaQRZVTBo1-130">
          <mxGeometry width="50" height="50" relative="1" as="geometry">
            <mxPoint x="50" y="180" as="sourcePoint" />
            <mxPoint x="30" y="180" as="targetPoint" />
            <Array as="points">
              <mxPoint x="60" y="200" />
            </Array>
          </mxGeometry>
        </mxCell>
        <mxCell id="dDVxBRqGpgKaQRZVTBo1-146" value="" style="edgeStyle=elbowEdgeStyle;elbow=horizontal;endArrow=classic;html=1;exitX=0.25;exitY=0;exitDx=0;exitDy=0;entryX=0.5;entryY=0;entryDx=0;entryDy=0;fontStyle=1" edge="1" parent="1" source="dDVxBRqGpgKaQRZVTBo1-128" target="dDVxBRqGpgKaQRZVTBo1-131">
          <mxGeometry width="50" height="50" relative="1" as="geometry">
            <mxPoint x="55" y="170" as="sourcePoint" />
            <mxPoint x="75" y="170" as="targetPoint" />
            <Array as="points">
              <mxPoint x="90" y="180" />
            </Array>
          </mxGeometry>
        </mxCell>
        <mxCell id="dDVxBRqGpgKaQRZVTBo1-147" value="" style="edgeStyle=elbowEdgeStyle;elbow=horizontal;endArrow=classic;html=1;exitX=0.25;exitY=0;exitDx=0;exitDy=0;entryX=0.5;entryY=0;entryDx=0;entryDy=0;fontStyle=1" edge="1" parent="1" source="dDVxBRqGpgKaQRZVTBo1-128" target="dDVxBRqGpgKaQRZVTBo1-129">
          <mxGeometry width="50" height="50" relative="1" as="geometry">
            <mxPoint x="135" y="230" as="sourcePoint" />
            <mxPoint x="55" y="230" as="targetPoint" />
            <Array as="points">
              <mxPoint x="100" y="190" />
            </Array>
          </mxGeometry>
        </mxCell>
        <mxCell id="dDVxBRqGpgKaQRZVTBo1-148" value="" style="edgeStyle=elbowEdgeStyle;elbow=horizontal;endArrow=classic;html=1;exitX=0.25;exitY=0;exitDx=0;exitDy=0;entryX=0.5;entryY=0;entryDx=0;entryDy=0;fontStyle=1" edge="1" parent="1" source="dDVxBRqGpgKaQRZVTBo1-124" target="dDVxBRqGpgKaQRZVTBo1-126">
          <mxGeometry width="50" height="50" relative="1" as="geometry">
            <mxPoint x="120" y="220" as="sourcePoint" />
            <mxPoint x="300" y="140" as="targetPoint" />
            <Array as="points">
              <mxPoint x="190" y="190" />
            </Array>
          </mxGeometry>
        </mxCell>
        <mxCell id="dDVxBRqGpgKaQRZVTBo1-149" value="1" style="rounded=0;whiteSpace=wrap;html=1;fontStyle=1" vertex="1" parent="1">
          <mxGeometry x="20" y="250" width="10" height="20" as="geometry" />
        </mxCell>
        <mxCell id="dDVxBRqGpgKaQRZVTBo1-150" value="2" style="rounded=0;whiteSpace=wrap;html=1;fontStyle=1" vertex="1" parent="1">
          <mxGeometry x="40" y="250" width="10" height="20" as="geometry" />
        </mxCell>
        <mxCell id="dDVxBRqGpgKaQRZVTBo1-151" value="3" style="rounded=0;whiteSpace=wrap;html=1;fontStyle=1" vertex="1" parent="1">
          <mxGeometry x="60" y="250" width="10" height="20" as="geometry" />
        </mxCell>
        <mxCell id="dDVxBRqGpgKaQRZVTBo1-152" value="4" style="rounded=0;whiteSpace=wrap;html=1;fontStyle=1" vertex="1" parent="1">
          <mxGeometry x="85" y="250" width="10" height="20" as="geometry" />
        </mxCell>
        <mxCell id="dDVxBRqGpgKaQRZVTBo1-153" value="5" style="rounded=0;whiteSpace=wrap;html=1;fontStyle=1" vertex="1" parent="1">
          <mxGeometry x="120" y="250" width="10" height="20" as="geometry" />
        </mxCell>
        <mxCell id="dDVxBRqGpgKaQRZVTBo1-154" value="6" style="rounded=0;whiteSpace=wrap;html=1;fontStyle=1" vertex="1" parent="1">
          <mxGeometry x="160" y="250" width="10" height="20" as="geometry" />
        </mxCell>
        <mxCell id="dDVxBRqGpgKaQRZVTBo1-155" value="7" style="rounded=0;whiteSpace=wrap;html=1;fontStyle=1" vertex="1" parent="1">
          <mxGeometry x="195" y="250" width="10" height="20" as="geometry" />
        </mxCell>
        <mxCell id="dDVxBRqGpgKaQRZVTBo1-156" value="8" style="rounded=0;whiteSpace=wrap;html=1;fontStyle=1" vertex="1" parent="1">
          <mxGeometry x="225" y="250" width="10" height="20" as="geometry" />
        </mxCell>
        <mxCell id="dDVxBRqGpgKaQRZVTBo1-157" value="9" style="rounded=0;whiteSpace=wrap;html=1;fontStyle=1" vertex="1" parent="1">
          <mxGeometry x="255" y="250" width="10" height="20" as="geometry" />
        </mxCell>
        <mxCell id="dDVxBRqGpgKaQRZVTBo1-158" value="10" style="rounded=0;whiteSpace=wrap;html=1;fontStyle=1" vertex="1" parent="1">
          <mxGeometry x="275" y="250" width="20" height="20" as="geometry" />
        </mxCell>
        <mxCell id="dDVxBRqGpgKaQRZVTBo1-159" value="11" style="rounded=0;whiteSpace=wrap;html=1;fontStyle=1" vertex="1" parent="1">
          <mxGeometry x="300" y="250" width="20" height="20" as="geometry" />
        </mxCell>
        <mxCell id="dDVxBRqGpgKaQRZVTBo1-160" value="12" style="rounded=0;whiteSpace=wrap;html=1;fontStyle=1" vertex="1" parent="1">
          <mxGeometry x="330" y="250" width="20" height="20" as="geometry" />
        </mxCell>
        <mxCell id="dDVxBRqGpgKaQRZVTBo1-161" value="13" style="rounded=0;whiteSpace=wrap;html=1;fontStyle=1" vertex="1" parent="1">
          <mxGeometry x="365" y="250" width="20" height="20" as="geometry" />
        </mxCell>
        <mxCell id="dDVxBRqGpgKaQRZVTBo1-162" value="14" style="rounded=0;whiteSpace=wrap;html=1;fontStyle=1" vertex="1" parent="1">
          <mxGeometry x="400" y="250" width="20" height="20" as="geometry" />
        </mxCell>
        <mxCell id="dDVxBRqGpgKaQRZVTBo1-163" value="15" style="rounded=0;whiteSpace=wrap;html=1;fontStyle=1" vertex="1" parent="1">
          <mxGeometry x="445" y="250" width="20" height="20" as="geometry" />
        </mxCell>
        <mxCell id="dDVxBRqGpgKaQRZVTBo1-164" value="16" style="rounded=0;whiteSpace=wrap;html=1;fontStyle=1" vertex="1" parent="1">
          <mxGeometry x="495" y="250" width="20" height="20" as="geometry" />
        </mxCell>
        <mxCell id="dDVxBRqGpgKaQRZVTBo1-165" value="24" style="rounded=0;whiteSpace=wrap;html=1;fontStyle=1" vertex="1" parent="1">
          <mxGeometry x="795" y="250" width="20" height="20" as="geometry" />
        </mxCell>
        <mxCell id="dDVxBRqGpgKaQRZVTBo1-166" value="23" style="rounded=0;whiteSpace=wrap;html=1;fontStyle=1" vertex="1" parent="1">
          <mxGeometry x="755" y="250" width="20" height="20" as="geometry" />
        </mxCell>
        <mxCell id="dDVxBRqGpgKaQRZVTBo1-167" value="22" style="rounded=0;whiteSpace=wrap;html=1;fontStyle=1" vertex="1" parent="1">
          <mxGeometry x="715" y="250" width="20" height="20" as="geometry" />
        </mxCell>
        <mxCell id="dDVxBRqGpgKaQRZVTBo1-168" value="21" style="rounded=0;whiteSpace=wrap;html=1;fontStyle=1" vertex="1" parent="1">
          <mxGeometry x="680" y="250" width="20" height="20" as="geometry" />
        </mxCell>
        <mxCell id="dDVxBRqGpgKaQRZVTBo1-169" value="20" style="rounded=0;whiteSpace=wrap;html=1;fontStyle=1" vertex="1" parent="1">
          <mxGeometry x="650" y="250" width="20" height="20" as="geometry" />
        </mxCell>
        <mxCell id="dDVxBRqGpgKaQRZVTBo1-170" value="19" style="rounded=0;whiteSpace=wrap;html=1;fontStyle=1" vertex="1" parent="1">
          <mxGeometry x="615" y="250" width="20" height="20" as="geometry" />
        </mxCell>
        <mxCell id="dDVxBRqGpgKaQRZVTBo1-171" value="18" style="rounded=0;whiteSpace=wrap;html=1;fontStyle=1" vertex="1" parent="1">
          <mxGeometry x="580" y="250" width="20" height="20" as="geometry" />
        </mxCell>
        <mxCell id="dDVxBRqGpgKaQRZVTBo1-172" value="17" style="rounded=0;whiteSpace=wrap;html=1;fontStyle=1" vertex="1" parent="1">
          <mxGeometry x="540" y="250" width="20" height="20" as="geometry" />
        </mxCell>
        <mxCell id="dDVxBRqGpgKaQRZVTBo1-173" value="26" style="rounded=0;whiteSpace=wrap;html=1;fontStyle=1" vertex="1" parent="1">
          <mxGeometry x="870" y="250" width="20" height="20" as="geometry" />
        </mxCell>
        <mxCell id="dDVxBRqGpgKaQRZVTBo1-174" value="25" style="rounded=0;whiteSpace=wrap;html=1;fontStyle=1" vertex="1" parent="1">
          <mxGeometry x="835" y="250" width="20" height="20" as="geometry" />
        </mxCell>
        <mxCell id="dDVxBRqGpgKaQRZVTBo1-175" value="0&lt;br&gt;" style="rounded=0;whiteSpace=wrap;html=1;fontStyle=1" vertex="1" parent="1">
          <mxGeometry x="120" y="50" width="10" height="20" as="geometry" />
        </mxCell>
        <mxCell id="dDVxBRqGpgKaQRZVTBo1-176" value="" style="edgeStyle=elbowEdgeStyle;elbow=horizontal;endArrow=classic;html=1;exitX=0.25;exitY=0;exitDx=0;exitDy=0;entryX=0.5;entryY=0;entryDx=0;entryDy=0;fontStyle=1" edge="1" parent="1" source="dDVxBRqGpgKaQRZVTBo1-126" target="dDVxBRqGpgKaQRZVTBo1-127">
          <mxGeometry width="50" height="50" relative="1" as="geometry">
            <mxPoint x="135" y="230" as="sourcePoint" />
            <mxPoint x="170" y="220" as="targetPoint" />
            <Array as="points">
              <mxPoint x="170" y="190" />
            </Array>
          </mxGeometry>
        </mxCell>
        <mxCell id="dDVxBRqGpgKaQRZVTBo1-177" value="" style="edgeStyle=elbowEdgeStyle;elbow=horizontal;endArrow=classic;html=1;entryX=0.5;entryY=0;entryDx=0;entryDy=0;exitX=0.25;exitY=0;exitDx=0;exitDy=0;fontStyle=1" edge="1" parent="1" source="dDVxBRqGpgKaQRZVTBo1-124" target="dDVxBRqGpgKaQRZVTBo1-125">
          <mxGeometry width="50" height="50" relative="1" as="geometry">
            <mxPoint x="260" y="220" as="sourcePoint" />
            <mxPoint x="320" y="180" as="targetPoint" />
            <Array as="points">
              <mxPoint x="230" y="200" />
            </Array>
          </mxGeometry>
        </mxCell>
        <mxCell id="dDVxBRqGpgKaQRZVTBo1-178" value="" style="edgeStyle=elbowEdgeStyle;elbow=horizontal;endArrow=classic;html=1;exitX=0.75;exitY=0;exitDx=0;exitDy=0;entryX=0.5;entryY=0;entryDx=0;entryDy=0;fontStyle=1" edge="1" parent="1" source="dDVxBRqGpgKaQRZVTBo1-128" target="dDVxBRqGpgKaQRZVTBo1-124">
          <mxGeometry width="50" height="50" relative="1" as="geometry">
            <mxPoint x="270" y="230" as="sourcePoint" />
            <mxPoint x="210" y="230" as="targetPoint" />
            <Array as="points">
              <mxPoint x="190" y="180" />
            </Array>
          </mxGeometry>
        </mxCell>
        <mxCell id="dDVxBRqGpgKaQRZVTBo1-179" value="" style="edgeStyle=elbowEdgeStyle;elbow=horizontal;endArrow=classic;html=1;exitX=0.25;exitY=0;exitDx=0;exitDy=0;entryX=0.5;entryY=0;entryDx=0;entryDy=0;fontStyle=1" edge="1" parent="1" source="dDVxBRqGpgKaQRZVTBo1-122" target="dDVxBRqGpgKaQRZVTBo1-123">
          <mxGeometry width="50" height="50" relative="1" as="geometry">
            <mxPoint x="280" y="240" as="sourcePoint" />
            <mxPoint x="220" y="240" as="targetPoint" />
            <Array as="points">
              <mxPoint x="285" y="200" />
            </Array>
          </mxGeometry>
        </mxCell>
        <mxCell id="dDVxBRqGpgKaQRZVTBo1-180" value="" style="edgeStyle=elbowEdgeStyle;elbow=horizontal;endArrow=classic;html=1;exitX=0.75;exitY=0;exitDx=0;exitDy=0;entryX=0.5;entryY=0;entryDx=0;entryDy=0;fontStyle=1" edge="1" parent="1" source="dDVxBRqGpgKaQRZVTBo1-122" target="dDVxBRqGpgKaQRZVTBo1-121">
          <mxGeometry width="50" height="50" relative="1" as="geometry">
            <mxPoint x="300" y="260" as="sourcePoint" />
            <mxPoint x="240" y="260" as="targetPoint" />
            <Array as="points">
              <mxPoint x="320" y="200" />
            </Array>
          </mxGeometry>
        </mxCell>
        <mxCell id="dDVxBRqGpgKaQRZVTBo1-181" value="" style="edgeStyle=elbowEdgeStyle;elbow=horizontal;endArrow=classic;html=1;exitX=0.75;exitY=0;exitDx=0;exitDy=0;entryX=0.5;entryY=0;entryDx=0;entryDy=0;fontStyle=1" edge="1" parent="1" source="dDVxBRqGpgKaQRZVTBo1-124" target="dDVxBRqGpgKaQRZVTBo1-122">
          <mxGeometry width="50" height="50" relative="1" as="geometry">
            <mxPoint x="310" y="270" as="sourcePoint" />
            <mxPoint x="250" y="270" as="targetPoint" />
            <Array as="points">
              <mxPoint x="280" y="190" />
            </Array>
          </mxGeometry>
        </mxCell>
        <mxCell id="dDVxBRqGpgKaQRZVTBo1-182" value="" style="edgeStyle=elbowEdgeStyle;elbow=horizontal;endArrow=classic;html=1;exitX=0.75;exitY=0;exitDx=0;exitDy=0;fontStyle=1" edge="1" parent="1" source="dDVxBRqGpgKaQRZVTBo1-124" target="dDVxBRqGpgKaQRZVTBo1-133">
          <mxGeometry width="50" height="50" relative="1" as="geometry">
            <mxPoint x="275" y="230" as="sourcePoint" />
            <mxPoint x="320" y="230" as="targetPoint" />
            <Array as="points">
              <mxPoint x="320" y="180" />
            </Array>
          </mxGeometry>
        </mxCell>
        <mxCell id="dDVxBRqGpgKaQRZVTBo1-183" value="" style="edgeStyle=elbowEdgeStyle;elbow=horizontal;endArrow=classic;html=1;exitX=0.25;exitY=0;exitDx=0;exitDy=0;entryX=0.5;entryY=0;entryDx=0;entryDy=0;fontStyle=1" edge="1" parent="1" source="dDVxBRqGpgKaQRZVTBo1-118" target="dDVxBRqGpgKaQRZVTBo1-134">
          <mxGeometry width="50" height="50" relative="1" as="geometry">
            <mxPoint x="275" y="230" as="sourcePoint" />
            <mxPoint x="385" y="230" as="targetPoint" />
            <Array as="points">
              <mxPoint x="480" y="180" />
            </Array>
          </mxGeometry>
        </mxCell>
        <mxCell id="dDVxBRqGpgKaQRZVTBo1-184" value="" style="edgeStyle=elbowEdgeStyle;elbow=horizontal;endArrow=classic;html=1;exitX=0.25;exitY=0;exitDx=0;exitDy=0;entryX=0.5;entryY=0;entryDx=0;entryDy=0;fontStyle=1" edge="1" parent="1" source="dDVxBRqGpgKaQRZVTBo1-118" target="dDVxBRqGpgKaQRZVTBo1-120">
          <mxGeometry width="50" height="50" relative="1" as="geometry">
            <mxPoint x="550" y="230" as="sourcePoint" />
            <mxPoint x="420" y="230" as="targetPoint" />
            <Array as="points">
              <mxPoint x="490" y="190" />
            </Array>
          </mxGeometry>
        </mxCell>
        <mxCell id="dDVxBRqGpgKaQRZVTBo1-185" value="" style="edgeStyle=elbowEdgeStyle;elbow=horizontal;endArrow=classic;html=1;exitX=0.25;exitY=0;exitDx=0;exitDy=0;entryX=0.5;entryY=0;entryDx=0;entryDy=0;fontStyle=1" edge="1" parent="1" source="dDVxBRqGpgKaQRZVTBo1-118" target="dDVxBRqGpgKaQRZVTBo1-119">
          <mxGeometry width="50" height="50" relative="1" as="geometry">
            <mxPoint x="550" y="230" as="sourcePoint" />
            <mxPoint x="465" y="230" as="targetPoint" />
            <Array as="points">
              <mxPoint x="500" y="200" />
            </Array>
          </mxGeometry>
        </mxCell>
        <mxCell id="dDVxBRqGpgKaQRZVTBo1-186" value="" style="edgeStyle=elbowEdgeStyle;elbow=horizontal;endArrow=classic;html=1;exitX=0.75;exitY=0;exitDx=0;exitDy=0;entryX=0.5;entryY=0;entryDx=0;entryDy=0;fontStyle=1" edge="1" parent="1" source="dDVxBRqGpgKaQRZVTBo1-133" target="dDVxBRqGpgKaQRZVTBo1-118">
          <mxGeometry width="50" height="50" relative="1" as="geometry">
            <mxPoint x="560" y="240" as="sourcePoint" />
            <mxPoint x="475" y="240" as="targetPoint" />
            <Array as="points">
              <mxPoint x="470" y="170" />
            </Array>
          </mxGeometry>
        </mxCell>
        <mxCell id="dDVxBRqGpgKaQRZVTBo1-187" value="" style="edgeStyle=elbowEdgeStyle;elbow=horizontal;endArrow=classic;html=1;entryX=0.5;entryY=0;entryDx=0;entryDy=0;fontStyle=1" edge="1" parent="1" source="dDVxBRqGpgKaQRZVTBo1-116" target="dDVxBRqGpgKaQRZVTBo1-117">
          <mxGeometry width="50" height="50" relative="1" as="geometry">
            <mxPoint x="637.5" y="240" as="sourcePoint" />
            <mxPoint x="610" y="240" as="targetPoint" />
            <Array as="points">
              <mxPoint x="620" y="200" />
            </Array>
          </mxGeometry>
        </mxCell>
        <mxCell id="dDVxBRqGpgKaQRZVTBo1-188" value="" style="edgeStyle=elbowEdgeStyle;elbow=horizontal;endArrow=classic;html=1;exitX=0.75;exitY=0;exitDx=0;exitDy=0;fontStyle=1" edge="1" parent="1" source="dDVxBRqGpgKaQRZVTBo1-118" target="dDVxBRqGpgKaQRZVTBo1-116">
          <mxGeometry width="50" height="50" relative="1" as="geometry">
            <mxPoint x="647.5" y="250" as="sourcePoint" />
            <mxPoint x="620" y="250" as="targetPoint" />
            <Array as="points">
              <mxPoint x="600" y="190" />
            </Array>
          </mxGeometry>
        </mxCell>
        <mxCell id="dDVxBRqGpgKaQRZVTBo1-189" value="" style="edgeStyle=elbowEdgeStyle;elbow=horizontal;endArrow=classic;html=1;entryX=0.5;entryY=0;entryDx=0;entryDy=0;exitX=0.25;exitY=0;exitDx=0;exitDy=0;fontStyle=1" edge="1" parent="1" source="dDVxBRqGpgKaQRZVTBo1-137" target="dDVxBRqGpgKaQRZVTBo1-138">
          <mxGeometry width="50" height="50" relative="1" as="geometry">
            <mxPoint x="635" y="180" as="sourcePoint" />
            <mxPoint x="607.5" y="180" as="targetPoint" />
            <Array as="points">
              <mxPoint x="690" y="190" />
            </Array>
          </mxGeometry>
        </mxCell>
        <mxCell id="dDVxBRqGpgKaQRZVTBo1-190" value="" style="edgeStyle=elbowEdgeStyle;elbow=horizontal;endArrow=classic;html=1;entryX=0.5;entryY=0;entryDx=0;entryDy=0;exitX=0.25;exitY=0;exitDx=0;exitDy=0;fontStyle=1" edge="1" parent="1" source="dDVxBRqGpgKaQRZVTBo1-137" target="dDVxBRqGpgKaQRZVTBo1-139">
          <mxGeometry width="50" height="50" relative="1" as="geometry">
            <mxPoint x="735" y="230" as="sourcePoint" />
            <mxPoint x="670" y="230" as="targetPoint" />
            <Array as="points">
              <mxPoint x="700" y="200" />
            </Array>
          </mxGeometry>
        </mxCell>
        <mxCell id="dDVxBRqGpgKaQRZVTBo1-191" value="" style="edgeStyle=elbowEdgeStyle;elbow=horizontal;endArrow=classic;html=1;exitX=0.25;exitY=0;exitDx=0;exitDy=0;entryX=0.5;entryY=0;entryDx=0;entryDy=0;fontStyle=1" edge="1" parent="1" source="dDVxBRqGpgKaQRZVTBo1-140" target="dDVxBRqGpgKaQRZVTBo1-137">
          <mxGeometry width="50" height="50" relative="1" as="geometry">
            <mxPoint x="755" y="250" as="sourcePoint" />
            <mxPoint x="730" y="220" as="targetPoint" />
            <Array as="points">
              <mxPoint x="740" y="190" />
            </Array>
          </mxGeometry>
        </mxCell>
        <mxCell id="dDVxBRqGpgKaQRZVTBo1-192" value="" style="edgeStyle=elbowEdgeStyle;elbow=horizontal;endArrow=classic;html=1;exitX=0.75;exitY=0;exitDx=0;exitDy=0;entryX=0.5;entryY=0;entryDx=0;entryDy=0;fontStyle=1" edge="1" parent="1" source="dDVxBRqGpgKaQRZVTBo1-116" target="dDVxBRqGpgKaQRZVTBo1-140">
          <mxGeometry width="50" height="50" relative="1" as="geometry">
            <mxPoint x="775" y="230" as="sourcePoint" />
            <mxPoint x="735" y="230" as="targetPoint" />
            <Array as="points">
              <mxPoint x="700" y="180" />
              <mxPoint x="710" y="180" />
            </Array>
          </mxGeometry>
        </mxCell>
        <mxCell id="dDVxBRqGpgKaQRZVTBo1-193" value="" style="edgeStyle=elbowEdgeStyle;elbow=horizontal;endArrow=classic;html=1;entryX=0.5;entryY=0;entryDx=0;entryDy=0;exitX=0.75;exitY=0;exitDx=0;exitDy=0;fontStyle=1" edge="1" parent="1" source="dDVxBRqGpgKaQRZVTBo1-140" target="dDVxBRqGpgKaQRZVTBo1-136">
          <mxGeometry width="50" height="50" relative="1" as="geometry">
            <mxPoint x="810" y="170" as="sourcePoint" />
            <mxPoint x="780" y="229.83" as="targetPoint" />
            <Array as="points">
              <mxPoint x="810" y="180" />
              <mxPoint x="725" y="189.83" />
            </Array>
          </mxGeometry>
        </mxCell>
        <mxCell id="dDVxBRqGpgKaQRZVTBo1-194" value="" style="edgeStyle=elbowEdgeStyle;elbow=horizontal;endArrow=classic;html=1;entryX=0.5;entryY=0;entryDx=0;entryDy=0;exitX=0.25;exitY=0;exitDx=0;exitDy=0;fontStyle=1" edge="1" parent="1" source="dDVxBRqGpgKaQRZVTBo1-136" target="dDVxBRqGpgKaQRZVTBo1-141">
          <mxGeometry width="50" height="50" relative="1" as="geometry">
            <mxPoint x="782.5" y="230" as="sourcePoint" />
            <mxPoint x="855" y="230" as="targetPoint" />
            <Array as="points">
              <mxPoint x="820" y="190" />
              <mxPoint x="735" y="199.83" />
            </Array>
          </mxGeometry>
        </mxCell>
        <mxCell id="dDVxBRqGpgKaQRZVTBo1-195" value="" style="edgeStyle=elbowEdgeStyle;elbow=horizontal;endArrow=classic;html=1;entryX=0.5;entryY=0;entryDx=0;entryDy=0;exitX=0.75;exitY=0;exitDx=0;exitDy=0;fontStyle=1" edge="1" parent="1" source="dDVxBRqGpgKaQRZVTBo1-116" target="dDVxBRqGpgKaQRZVTBo1-135">
          <mxGeometry width="50" height="50" relative="1" as="geometry">
            <mxPoint x="847.5" y="230" as="sourcePoint" />
            <mxPoint x="815" y="230" as="targetPoint" />
            <Array as="points">
              <mxPoint x="760" y="170" />
              <mxPoint x="745" y="209.83" />
            </Array>
          </mxGeometry>
        </mxCell>
        <mxCell id="dDVxBRqGpgKaQRZVTBo1-196" value="函" style="rounded=0;whiteSpace=wrap;html=1;fontStyle=1" vertex="1" parent="1">
          <mxGeometry x="900" y="220" width="20" height="20" as="geometry" />
        </mxCell>
        <mxCell id="dDVxBRqGpgKaQRZVTBo1-197" value="市" style="rounded=0;whiteSpace=wrap;html=1;fontStyle=1" vertex="1" parent="1">
          <mxGeometry x="960" y="220" width="20" height="20" as="geometry" />
        </mxCell>
        <mxCell id="dDVxBRqGpgKaQRZVTBo1-198" value="号" style="rounded=0;whiteSpace=wrap;html=1;fontStyle=1" vertex="1" parent="1">
          <mxGeometry x="1260" y="220" width="20" height="20" as="geometry" />
        </mxCell>
        <mxCell id="dDVxBRqGpgKaQRZVTBo1-199" value="）" style="rounded=0;whiteSpace=wrap;html=1;fontStyle=1" vertex="1" parent="1">
          <mxGeometry x="1190" y="220" width="20" height="20" as="geometry" />
        </mxCell>
        <mxCell id="dDVxBRqGpgKaQRZVTBo1-200" value="20" style="rounded=0;whiteSpace=wrap;html=1;fontStyle=1" vertex="1" parent="1">
          <mxGeometry x="1130" y="220" width="20" height="20" as="geometry" />
        </mxCell>
        <mxCell id="dDVxBRqGpgKaQRZVTBo1-201" value="&lt;pre style=&quot;box-sizing: border-box; overflow: auto; font-size: 14px; padding: 1px 0px; margin-top: 0px; margin-bottom: 0px; line-height: inherit; word-break: break-all; overflow-wrap: break-word; background-color: rgb(255, 255, 255); border: 0px; border-radius: 0px; vertical-align: baseline; text-align: left;&quot;&gt;（&lt;/pre&gt;" style="rounded=0;whiteSpace=wrap;html=1;fontStyle=1" vertex="1" parent="1">
          <mxGeometry x="1100" y="220" width="20" height="20" as="geometry" />
        </mxCell>
        <mxCell id="dDVxBRqGpgKaQRZVTBo1-202" value="函" style="rounded=0;whiteSpace=wrap;html=1;fontStyle=1" vertex="1" parent="1">
          <mxGeometry x="1070" y="220" width="20" height="20" as="geometry" />
        </mxCell>
        <mxCell id="dDVxBRqGpgKaQRZVTBo1-203" value="国土" style="rounded=0;whiteSpace=wrap;html=1;fontStyle=1" vertex="1" parent="1">
          <mxGeometry x="1030" y="220" width="30" height="20" as="geometry" />
        </mxCell>
        <mxCell id="dDVxBRqGpgKaQRZVTBo1-204" value="规划" style="rounded=0;whiteSpace=wrap;html=1;fontStyle=1" vertex="1" parent="1">
          <mxGeometry x="990" y="220" width="30" height="20" as="geometry" />
        </mxCell>
        <mxCell id="dDVxBRqGpgKaQRZVTBo1-205" value="》" style="rounded=0;whiteSpace=wrap;html=1;fontStyle=1" vertex="1" parent="1">
          <mxGeometry x="930" y="220" width="20" height="20" as="geometry" />
        </mxCell>
        <mxCell id="dDVxBRqGpgKaQRZVTBo1-206" value="xx" style="rounded=0;whiteSpace=wrap;html=1;fontStyle=1" vertex="1" parent="1">
          <mxGeometry x="1160" y="220" width="20" height="20" as="geometry" />
        </mxCell>
        <mxCell id="dDVxBRqGpgKaQRZVTBo1-207" value="xxxx" style="rounded=0;whiteSpace=wrap;html=1;fontStyle=1" vertex="1" parent="1">
          <mxGeometry x="1220" y="220" width="30" height="20" as="geometry" />
        </mxCell>
        <mxCell id="dDVxBRqGpgKaQRZVTBo1-208" value="27" style="rounded=0;whiteSpace=wrap;html=1;fontStyle=1" vertex="1" parent="1">
          <mxGeometry x="900" y="250" width="20" height="20" as="geometry" />
        </mxCell>
        <mxCell id="dDVxBRqGpgKaQRZVTBo1-209" value="34" style="rounded=0;whiteSpace=wrap;html=1;fontStyle=1" vertex="1" parent="1">
          <mxGeometry x="1130" y="250" width="20" height="20" as="geometry" />
        </mxCell>
        <mxCell id="dDVxBRqGpgKaQRZVTBo1-210" value="28" style="rounded=0;whiteSpace=wrap;html=1;fontStyle=1" vertex="1" parent="1">
          <mxGeometry x="930" y="250" width="20" height="20" as="geometry" />
        </mxCell>
        <mxCell id="dDVxBRqGpgKaQRZVTBo1-211" value="33" style="rounded=0;whiteSpace=wrap;html=1;fontStyle=1" vertex="1" parent="1">
          <mxGeometry x="1100" y="250" width="20" height="20" as="geometry" />
        </mxCell>
        <mxCell id="dDVxBRqGpgKaQRZVTBo1-212" value="32" style="rounded=0;whiteSpace=wrap;html=1;fontStyle=1" vertex="1" parent="1">
          <mxGeometry x="1070" y="250" width="20" height="20" as="geometry" />
        </mxCell>
        <mxCell id="dDVxBRqGpgKaQRZVTBo1-213" value="31" style="rounded=0;whiteSpace=wrap;html=1;fontStyle=1" vertex="1" parent="1">
          <mxGeometry x="1035" y="250" width="20" height="20" as="geometry" />
        </mxCell>
        <mxCell id="dDVxBRqGpgKaQRZVTBo1-214" value="30" style="rounded=0;whiteSpace=wrap;html=1;fontStyle=1" vertex="1" parent="1">
          <mxGeometry x="995" y="250" width="20" height="20" as="geometry" />
        </mxCell>
        <mxCell id="dDVxBRqGpgKaQRZVTBo1-215" value="29" style="rounded=0;whiteSpace=wrap;html=1;fontStyle=1" vertex="1" parent="1">
          <mxGeometry x="960" y="250" width="20" height="20" as="geometry" />
        </mxCell>
        <mxCell id="dDVxBRqGpgKaQRZVTBo1-216" value="38" style="rounded=0;whiteSpace=wrap;html=1;fontStyle=1" vertex="1" parent="1">
          <mxGeometry x="1260" y="250" width="20" height="20" as="geometry" />
        </mxCell>
        <mxCell id="dDVxBRqGpgKaQRZVTBo1-217" value="37" style="rounded=0;whiteSpace=wrap;html=1;fontStyle=1" vertex="1" parent="1">
          <mxGeometry x="1225" y="250" width="20" height="20" as="geometry" />
        </mxCell>
        <mxCell id="dDVxBRqGpgKaQRZVTBo1-218" value="36" style="rounded=0;whiteSpace=wrap;html=1;fontStyle=1" vertex="1" parent="1">
          <mxGeometry x="1190" y="250" width="20" height="20" as="geometry" />
        </mxCell>
        <mxCell id="dDVxBRqGpgKaQRZVTBo1-219" value="35" style="rounded=0;whiteSpace=wrap;html=1;fontStyle=1" vertex="1" parent="1">
          <mxGeometry x="1160" y="250" width="20" height="20" as="geometry" />
        </mxCell>
        <mxCell id="dDVxBRqGpgKaQRZVTBo1-220" value="" style="edgeStyle=elbowEdgeStyle;elbow=horizontal;endArrow=classic;html=1;exitX=0.75;exitY=0;exitDx=0;exitDy=0;entryX=0.5;entryY=0;entryDx=0;entryDy=0;fontStyle=1" edge="1" parent="1" source="dDVxBRqGpgKaQRZVTBo1-133" target="dDVxBRqGpgKaQRZVTBo1-196">
          <mxGeometry width="50" height="50" relative="1" as="geometry">
            <mxPoint x="392.5" y="230" as="sourcePoint" />
            <mxPoint x="560" y="230" as="targetPoint" />
            <Array as="points">
              <mxPoint x="650" y="160" />
            </Array>
          </mxGeometry>
        </mxCell>
        <mxCell id="dDVxBRqGpgKaQRZVTBo1-221" value="" style="edgeStyle=elbowEdgeStyle;elbow=horizontal;endArrow=classic;html=1;entryX=0.5;entryY=0;entryDx=0;entryDy=0;exitX=0.75;exitY=0;exitDx=0;exitDy=0;fontStyle=1" edge="1" parent="1" source="dDVxBRqGpgKaQRZVTBo1-196" target="dDVxBRqGpgKaQRZVTBo1-205">
          <mxGeometry width="50" height="50" relative="1" as="geometry">
            <mxPoint x="847.5" y="230" as="sourcePoint" />
            <mxPoint x="815" y="230" as="targetPoint" />
            <Array as="points">
              <mxPoint x="915" y="200" />
              <mxPoint x="745" y="209.83" />
            </Array>
          </mxGeometry>
        </mxCell>
        <mxCell id="dDVxBRqGpgKaQRZVTBo1-222" value="" style="edgeStyle=elbowEdgeStyle;elbow=horizontal;endArrow=classic;html=1;entryX=0.5;entryY=0;entryDx=0;entryDy=0;exitX=0.25;exitY=0;exitDx=0;exitDy=0;fontStyle=1" edge="1" parent="1" source="dDVxBRqGpgKaQRZVTBo1-202" target="dDVxBRqGpgKaQRZVTBo1-197">
          <mxGeometry width="50" height="50" relative="1" as="geometry">
            <mxPoint x="925" y="230" as="sourcePoint" />
            <mxPoint x="950" y="230" as="targetPoint" />
            <Array as="points">
              <mxPoint x="1030" y="180" />
              <mxPoint x="1020" y="190" />
              <mxPoint x="755" y="219.83" />
            </Array>
          </mxGeometry>
        </mxCell>
        <mxCell id="dDVxBRqGpgKaQRZVTBo1-223" value="" style="edgeStyle=elbowEdgeStyle;elbow=horizontal;endArrow=classic;html=1;exitX=0.25;exitY=0;exitDx=0;exitDy=0;fontStyle=1" edge="1" parent="1" source="dDVxBRqGpgKaQRZVTBo1-202" target="dDVxBRqGpgKaQRZVTBo1-204">
          <mxGeometry width="50" height="50" relative="1" as="geometry">
            <mxPoint x="1085" y="230" as="sourcePoint" />
            <mxPoint x="980" y="230" as="targetPoint" />
            <Array as="points">
              <mxPoint x="1005" y="190" />
              <mxPoint x="1030" y="200" />
              <mxPoint x="765" y="229.83" />
            </Array>
          </mxGeometry>
        </mxCell>
        <mxCell id="dDVxBRqGpgKaQRZVTBo1-224" value="" style="edgeStyle=elbowEdgeStyle;elbow=horizontal;endArrow=classic;html=1;exitX=0.25;exitY=0;exitDx=0;exitDy=0;fontStyle=1;entryX=0.5;entryY=0;entryDx=0;entryDy=0;" edge="1" parent="1" source="dDVxBRqGpgKaQRZVTBo1-202" target="dDVxBRqGpgKaQRZVTBo1-203">
          <mxGeometry width="50" height="50" relative="1" as="geometry">
            <mxPoint x="1085" y="230" as="sourcePoint" />
            <mxPoint x="1015" y="230" as="targetPoint" />
            <Array as="points">
              <mxPoint x="1045" y="200" />
              <mxPoint x="1040" y="210" />
              <mxPoint x="775" y="239.83" />
            </Array>
          </mxGeometry>
        </mxCell>
        <mxCell id="dDVxBRqGpgKaQRZVTBo1-225" value="" style="edgeStyle=elbowEdgeStyle;elbow=horizontal;endArrow=classic;html=1;exitX=0.75;exitY=0;exitDx=0;exitDy=0;fontStyle=1;entryX=0.5;entryY=0;entryDx=0;entryDy=0;" edge="1" parent="1" source="dDVxBRqGpgKaQRZVTBo1-202" target="dDVxBRqGpgKaQRZVTBo1-206">
          <mxGeometry width="50" height="50" relative="1" as="geometry">
            <mxPoint x="1095" y="240" as="sourcePoint" />
            <mxPoint x="1025" y="240" as="targetPoint" />
            <Array as="points">
              <mxPoint x="1130" y="180" />
              <mxPoint x="1050" y="220" />
              <mxPoint x="785" y="249.83" />
            </Array>
          </mxGeometry>
        </mxCell>
        <mxCell id="dDVxBRqGpgKaQRZVTBo1-226" value="" style="edgeStyle=elbowEdgeStyle;elbow=horizontal;endArrow=classic;html=1;exitX=0.75;exitY=0;exitDx=0;exitDy=0;fontStyle=1;entryX=0.5;entryY=0;entryDx=0;entryDy=0;" edge="1" parent="1" source="dDVxBRqGpgKaQRZVTBo1-206" target="dDVxBRqGpgKaQRZVTBo1-199">
          <mxGeometry width="50" height="50" relative="1" as="geometry">
            <mxPoint x="1095" y="230" as="sourcePoint" />
            <mxPoint x="1140" y="220" as="targetPoint" />
            <Array as="points">
              <mxPoint x="1190" y="200" />
              <mxPoint x="1060" y="230" />
              <mxPoint x="795" y="259.83000000000004" />
            </Array>
          </mxGeometry>
        </mxCell>
        <mxCell id="dDVxBRqGpgKaQRZVTBo1-227" value="" style="edgeStyle=elbowEdgeStyle;elbow=horizontal;endArrow=classic;html=1;exitX=0.25;exitY=0;exitDx=0;exitDy=0;fontStyle=1;entryX=0.5;entryY=0;entryDx=0;entryDy=0;" edge="1" parent="1" source="dDVxBRqGpgKaQRZVTBo1-206" target="dDVxBRqGpgKaQRZVTBo1-201">
          <mxGeometry width="50" height="50" relative="1" as="geometry">
            <mxPoint x="1175" y="230" as="sourcePoint" />
            <mxPoint x="1150" y="230" as="targetPoint" />
            <Array as="points">
              <mxPoint x="1140" y="190" />
              <mxPoint x="1150" y="200" />
              <mxPoint x="1070" y="240" />
              <mxPoint x="805" y="269.83000000000004" />
            </Array>
          </mxGeometry>
        </mxCell>
        <mxCell id="dDVxBRqGpgKaQRZVTBo1-228" value="" style="edgeStyle=elbowEdgeStyle;elbow=horizontal;endArrow=classic;html=1;exitX=0.25;exitY=0;exitDx=0;exitDy=0;fontStyle=1;entryX=0.5;entryY=0;entryDx=0;entryDy=0;" edge="1" parent="1" source="dDVxBRqGpgKaQRZVTBo1-198" target="dDVxBRqGpgKaQRZVTBo1-207">
          <mxGeometry width="50" height="50" relative="1" as="geometry">
            <mxPoint x="1200" y="300" as="sourcePoint" />
            <mxPoint x="1225" y="300" as="targetPoint" />
            <Array as="points">
              <mxPoint x="1250" y="200" />
              <mxPoint x="1085" y="310" />
              <mxPoint x="820" y="339.83000000000004" />
            </Array>
          </mxGeometry>
        </mxCell>
        <mxCell id="dDVxBRqGpgKaQRZVTBo1-229" value="" style="edgeStyle=elbowEdgeStyle;elbow=horizontal;endArrow=classic;html=1;exitX=0.25;exitY=0;exitDx=0;exitDy=0;fontStyle=1;entryX=0.5;entryY=0;entryDx=0;entryDy=0;" edge="1" parent="1" source="dDVxBRqGpgKaQRZVTBo1-206" target="dDVxBRqGpgKaQRZVTBo1-200">
          <mxGeometry width="50" height="50" relative="1" as="geometry">
            <mxPoint x="1195" y="240" as="sourcePoint" />
            <mxPoint x="1220" y="240" as="targetPoint" />
            <Array as="points">
              <mxPoint x="1160" y="200" />
              <mxPoint x="1080" y="250" />
              <mxPoint x="815" y="279.83000000000004" />
            </Array>
          </mxGeometry>
        </mxCell>
        <mxCell id="dDVxBRqGpgKaQRZVTBo1-230" value="" style="edgeStyle=elbowEdgeStyle;elbow=horizontal;endArrow=classic;html=1;exitX=0.75;exitY=0;exitDx=0;exitDy=0;fontStyle=1;entryX=0.5;entryY=0;entryDx=0;entryDy=0;" edge="1" parent="1" source="dDVxBRqGpgKaQRZVTBo1-133" target="dDVxBRqGpgKaQRZVTBo1-198">
          <mxGeometry width="50" height="50" relative="1" as="geometry">
            <mxPoint x="1175" y="220" as="sourcePoint" />
            <mxPoint x="1200" y="220" as="targetPoint" />
            <Array as="points">
              <mxPoint x="1240" y="150" />
              <mxPoint x="1060" y="230" />
              <mxPoint x="795" y="259.83000000000004" />
            </Array>
          </mxGeometry>
        </mxCell>
      </root>
    </mxGraphModel>
  </diagram>
</mxfile>
